<?xml version="1.0" encoding="UTF-8"?>
<svg width="114px" height="114px" viewBox="0 0 114 114" version="1.1" xmlns="http://www.w3.org/2000/svg" xmlns:xlink="http://www.w3.org/1999/xlink">
    <title>Icon</title>
    <defs>
        <linearGradient x1="99.5287915%" y1="0.471208479%" x2="0.69400814%" y2="99.3059919%" id="linearGradient-1">
            <stop stop-color="#FF9942" offset="0%"></stop>
            <stop stop-color="#FF4700" offset="100%"></stop>
        </linearGradient>
    </defs>
    <g id="Icon" stroke="none" stroke-width="1" fill="none" fill-rule="evenodd">
        <g id="Glyph">
            <path d="M29.4846798,4.24978848e-15 L84.5153202,1.19121635e-15 C94.7677857,-6.92131006e-16 98.4855774,1.06749453 102.233726,3.07202609 C105.981874,5.07655766 108.923442,8.01812626 110.927974,11.7662744 C112.932505,15.5144226 114,19.2322143 114,29.4846798 L114,84.5153202 C114,94.7677857 112.932505,98.4855774 110.927974,102.233726 C108.923442,105.981874 105.981874,108.923442 102.233726,110.927974 C98.4855774,112.932505 94.7677857,114 84.5153202,114 L29.4846798,114 C19.2322143,114 15.5144226,112.932505 11.7662744,110.927974 C8.01812626,108.923442 5.07655766,105.981874 3.07202609,102.233726 C1.06749453,98.4855774 -2.69995983e-15,94.7677857 4.6468606e-15,84.5153202 L7.94144236e-16,29.4846798 C-4.61420671e-16,19.2322143 1.06749453,15.5144226 3.07202609,11.7662744 C5.07655766,8.01812626 8.01812626,5.07655766 11.7662744,3.07202609 C15.5144226,1.06749453 19.2322143,-2.46924949e-15 29.4846798,4.24978848e-15 Z" id="background" fill="url(#linearGradient-1)"></path>
            <path d="M56.3320313,15.3632812 C80.8029919,15.3632812 100.640625,33.9548319 100.640625,56.8886719 C100.640625,79.8225118 80.8029919,98.4140625 56.3320313,98.4140625 C47.6626219,98.4140625 39.5747397,96.0806442 32.7444396,92.0473969 C31.2694527,93.0539783 29.1910398,93.8070274 26.5105916,94.3058424 C22.2443409,95.0997654 18.9124339,94.5581226 16.5148706,92.6809139 C19.2547306,91.0172375 20.9134444,89.2277342 21.4910122,87.312404 C21.7709051,86.3842233 21.9308637,84.982237 21.9708879,83.106445 C15.751405,75.9563836 12.0234375,66.8305379 12.0234375,56.8886719 C12.0234375,33.9548319 31.8610706,15.3632812 56.3320313,15.3632812 Z" id="bubble" fill="#FFFFFF"></path>
            <path d="M56.3320312,31.171875 C59.8981511,31.171875 62.7890625,34.0627864 62.7890625,37.6289062 C62.7890625,38.8858174 62.4299322,40.0588491 61.8086863,41.0509868 L72.5044945,51.7455042 C73.496464,51.1245638 74.6692053,50.765625 75.9257812,50.765625 C79.4919011,50.765625 82.3828125,53.6565364 82.3828125,57.2226562 C82.3828125,60.7887761 79.4919011,63.6796875 75.9257812,63.6796875 C74.7849493,63.6796875 73.7132192,63.3838275 72.7831327,62.8646494 L61.9740244,73.6737577 C62.4932025,74.6038442 62.7890625,75.6755743 62.7890625,76.8164062 C62.7890625,80.3825261 59.8981511,83.2734375 56.3320312,83.2734375 C52.7659114,83.2734375 49.875,80.3825261 49.875,76.8164062 C49.875,75.7342623 50.141203,74.7142934 50.6116965,73.8184121 L39.7362754,62.942991 C38.8403941,63.4134845 37.8204252,63.6796875 36.7382812,63.6796875 C33.1721614,63.6796875 30.28125,60.7887761 30.28125,57.2226562 C30.28125,53.6565364 33.1721614,50.765625 36.7382812,50.765625 C37.936991,50.765625 39.0594096,51.0922662 40.0213849,51.6613964 L50.7707714,40.9120099 C50.2016412,39.9500346 49.875,38.827616 49.875,37.6289062 C49.875,34.0627864 52.7659114,31.171875 56.3320312,31.171875 Z M53.7861242,43.5646433 L42.6740183,54.6767492 C43.009514,55.4579218 43.1953125,56.3185912 43.1953125,57.2226562 C43.1953125,58.2456579 42.9574119,59.2130949 42.5339168,60.0726611 L53.4822227,71.020674 C53.7539118,70.8868284 54.0363769,70.7715243 54.3279664,70.6764132 L54.3279664,63.3626493 C51.7429191,62.5194548 49.875,60.0891935 49.875,57.2226562 C49.875,53.6565364 52.7659114,50.765625 56.3320312,50.765625 C59.8981511,50.765625 62.7890625,53.6565364 62.7890625,57.2226562 C62.7890625,60.0892024 60.9211318,62.5194699 58.336072,63.3626571 L58.336072,70.6764054 C58.5741471,70.75406 58.8061397,70.8451759 59.0311508,70.9488541 L70.0582291,59.9217758 C69.6798129,59.1005055 69.46875,58.186229 69.46875,57.2226562 C69.46875,56.3793426 69.6304169,55.5737884 69.9244491,54.835295 L58.7202691,43.6298893 C57.9815366,43.9241426 57.1756785,44.0859375 56.3320312,44.0859375 C55.4279662,44.0859375 54.5672968,43.900139 53.7861242,43.5646433 Z" id="decentral" fill="url(#linearGradient-1)"></path>
        </g>
    </g>
</svg>