<?xml version="1.0" encoding="UTF-8"?>
<svg width="120px" height="120px" viewBox="0 0 120 120" version="1.1" xmlns="http://www.w3.org/2000/svg" xmlns:xlink="http://www.w3.org/1999/xlink">
    <title>feature-icon-01</title>
    <defs>
        <filter color-interpolation-filters="auto" id="filter-1">
            <feColorMatrix in="SourceGraphic" type="matrix" values="0 0 0 0 1.000000 0 0 0 0 1.000000 0 0 0 0 1.000000 0 0 0 1.000000 0"></feColorMatrix>
        </filter>
    </defs>
    <g id="Page-1" stroke="none" stroke-width="1" fill="none" fill-rule="evenodd">
        <g filter="url(#filter-1)" id="feature-icon-01">
            <g>
                <path d="M95,10 C103.27,10 110,16.73 110,25 L110,95 C110,103.27 103.27,110 95,110 L25,110 C16.73,110 10,103.27 10,95 L10,25 C10,16.73 16.73,10 25,10 L95,10 Z M95,0 L25,0 C11.195,0 0,11.195 0,25 L0,95 C0,108.805 11.195,120 25,120 L95,120 C108.81,120 120,108.805 120,95 L120,25 C120,11.195 108.81,0 95,0 Z M55,40 L50,40 L50,30 L55,30 L55,35 L65,35 L65,40 L60,40 L60,45 L55,45 L55,40 Z M65,100 L65,95 L60,95 L60,100 L65,100 Z M60,25 L60,20 L50,20 L50,25 L55,25 L55,30 L60,30 L60,25 Z M100,20 L100,50 L95,50 L95,45 L75,45 L75,20 L100,20 Z M95,40 L95,25 L80,25 L80,40 L95,40 Z M25,50 L20,50 L20,55 L30,55 L30,50 L25,50 Z M25,65 L30,65 L30,70 L35,70 L35,55 L30,55 L30,60 L20,60 L20,70 L25,70 L25,65 Z M50,70 L50,80 L55,80 L55,70 L50,70 Z M70,20 L65,20 L65,35 L70,35 L70,20 Z M70,45 L70,40 L65,40 L65,45 L70,45 Z M85,35 L90,35 L90,30 L85,30 L85,35 Z M35,30 L30,30 L30,35 L35,35 L35,30 Z M45,20 L45,45 L20,45 L20,20 L45,20 Z M40,25 L25,25 L25,40 L40,40 L40,25 Z M85,50 L85,55 L80,55 L80,50 L70,50 L70,55 L65,55 L65,50 L50,50 L50,45 L45,45 L45,50 L40,50 L40,55 L45,55 L45,65 L50,65 L50,60 L55,60 L55,70 L60,70 L60,60 L75,60 L75,65 L65,65 L65,70 L75,70 L75,75 L80,75 L80,60 L85,60 L85,65 L90,65 L90,75 L95,75 L95,70 L100,70 L100,65 L95,65 L95,60 L90,60 L90,55 L95,55 L95,50 L85,50 Z M30,90 L35,90 L35,85 L30,85 L30,90 Z M20,75 L45,75 L45,100 L20,100 L20,75 Z M25,95 L40,95 L40,80 L25,80 L25,95 Z M85,80 L85,75 L80,75 L80,80 L85,80 Z M85,85 L80,85 L80,90 L75,90 L75,85 L70,85 L70,80 L75,80 L75,75 L65,75 L65,70 L60,70 L60,80 L55,80 L55,85 L50,85 L50,100 L55,100 L55,95 L60,95 L60,90 L70,90 L70,100 L75,100 L75,95 L80,95 L80,100 L90,100 L90,95 L95,95 L95,90 L85,90 L85,85 Z M40,70 L45,70 L45,65 L40,65 L40,70 Z M90,80 L90,85 L95,85 L95,90 L100,90 L100,75 L95,75 L95,80 L90,80 Z M100,100 L100,95 L95,95 L95,100 L100,100 Z M100,60 L100,55 L95,55 L95,60 L100,60 Z" id="Shape" fill="#000000" fill-rule="nonzero"></path>
            </g>
        </g>
    </g>
</svg>