<?xml version="1.0" encoding="UTF-8"?>
<svg width="302px" height="348px" viewBox="0 0 302 348" version="1.1" xmlns="http://www.w3.org/2000/svg" xmlns:xlink="http://www.w3.org/1999/xlink">
    <title>hero-top-illustration</title>
    <defs>
        <filter color-interpolation-filters="auto" id="filter-1">
            <feColorMatrix in="SourceGraphic" type="matrix" values="0 0 0 0 1.000000 0 0 0 0 0.425788 0 0 0 0 0.000000 0 0 0 1.000000 0"></feColorMatrix>
        </filter>
        <linearGradient x1="0%" y1="5.55111512e-15%" x2="100%" y2="88.353%" id="linearGradient-2">
            <stop stop-color="#FFFFFF" offset="0%"></stop>
            <stop stop-color="#FFFFFF" stop-opacity="0" offset="100%"></stop>
        </linearGradient>
    </defs>
    <g id="Page-1" stroke="none" stroke-width="1" fill="none" fill-rule="evenodd">
        <g filter="url(#filter-1)" id="hero-top-illustration">
            <g transform="translate(0.514894, 0.009708)">
                <g id="Group" transform="translate(0.000000, 0.000000)" fill="#FFFFFF" fill-rule="nonzero">
                    <path d="M76.404106,45.4302922 C76.698106,44.3502922 76.296106,44.2982922 75.999106,45.2902922 C75.9251389,45.4976666 75.8417183,45.7015466 75.749106,45.9012922 C75.9427551,45.4602482 76.0953989,45.0023167 76.205106,44.5332922 L76.205106,44.5302922 C76.380106,44.5632922 76.594106,44.3842922 76.809106,43.9422922 C76.919106,43.7192922 76.985106,43.4222922 77.059106,43.0612922 C77.093106,42.6992922 77.138106,42.2672922 77.067106,41.7832922 C76.850106,39.7802922 75.888106,37.8872922 74.417106,36.5622922 C72.949106,35.2272922 70.983106,34.5162922 69.018106,34.5502922 C67.0116152,34.5936031 65.0943449,35.3879161 63.645106,36.7762922 C62.182106,38.1522922 61.254106,40.0922922 61.053106,42.0942922 C60.8411571,44.0993745 61.3704533,46.1126923 62.541106,47.7542922 C63.6787731,49.354314 65.3770479,50.4674568 67.298106,50.8722922 C69.182106,51.2752922 71.204106,50.9042922 72.857106,49.9022922 C74.5358211,48.8838084 75.7941611,47.2976685 76.404106,45.4312922" id="Path"></path>
                    <path d="M47.982106,61.0202922 C47.716106,61.9992922 48.132106,62.0542922 48.404106,61.1632922 C48.471106,60.9782922 48.548106,60.7982922 48.631106,60.6202922 C48.4553381,61.0146759 48.3173866,61.4248473 48.219106,61.8452922 L48.219106,61.8482922 C48.037106,61.8122922 47.821106,61.9682922 47.609106,62.3652922 C47.501106,62.5672922 47.435106,62.8352922 47.365106,63.1632922 C47.332106,63.4912922 47.291106,63.8852922 47.361106,64.3262922 C47.5946993,66.1752246 48.4984595,67.8742226 49.901106,69.1012922 C51.298106,70.3282922 53.158106,70.9912922 55.011106,70.9752922 C58.8718853,70.9544699 62.0901683,68.0144595 62.459106,64.1712922 C62.649106,62.3462922 62.103106,60.4692922 61.007106,59.0122922 C59.904326,57.5393502 58.3016071,56.5198261 56.500106,56.1452922 C54.7147713,55.7754407 52.8557675,56.0751308 51.277106,56.9872922 C49.7218932,57.8822243 48.549376,59.317001 47.982106,61.0192922" id="Path" fill-opacity="0.64"></path>
                    <path d="M33.937106,73.0552922 C35.3831548,72.2199268 36.4720803,70.8826124 36.997106,69.2972922 C37.244106,68.3852922 36.812106,68.3272922 36.560106,69.1472922 C36.4984613,69.3157457 36.4290538,69.481256 36.352106,69.6432922 C36.509106,69.2862922 36.639106,68.9122922 36.730106,68.5182922 L36.730106,68.5152922 C36.918106,68.5532922 37.139106,68.4142922 37.351106,68.0472922 C37.458106,67.8602922 37.527106,67.6102922 37.597106,67.3042922 C37.632106,66.9982922 37.673106,66.6302922 37.607106,66.2182922 C37.3897279,64.4903248 36.5456912,62.9022407 35.235106,61.7552922 C33.930106,60.6082922 32.192106,59.9892922 30.461106,60.0052922 C28.7137045,60.0196174 27.0335736,60.6808394 25.745106,61.8612922 C24.469333,63.0344164 23.6725485,64.6379586 23.508106,66.3632922 C23.332106,68.0682922 23.844106,69.8192922 24.868106,71.1762922 C25.8974361,72.5491253 27.3928298,73.4986381 29.073106,73.8462922 C30.7365725,74.1884116 32.4677642,73.9068794 33.937106,73.0552922" id="Path" fill-opacity="0.48"></path>
                    <path d="M15.041106,53.9682922 C15.251106,53.1882922 14.832106,53.1322922 14.618106,53.8242922 C14.5658323,53.9651033 14.5074435,54.1035681 14.443106,54.2392922 C14.575106,53.9392922 14.684106,53.6232922 14.761106,53.2922922 L14.761106,53.2892922 C14.943106,53.3262922 15.151106,53.2142922 15.349106,52.9022922 C15.449106,52.7442922 15.514106,52.5302922 15.579106,52.2682922 C15.614106,52.0062922 15.652106,51.6902922 15.596106,51.3362922 C15.4102666,49.8530286 14.6860746,48.489697 13.561106,47.5052922 C12.441106,46.5202922 10.949106,45.9892922 9.46410604,46.0032922 C7.97410604,46.0132922 6.50110604,46.5932922 5.41810604,47.5982922 C4.32526265,48.6060613 3.64356754,49.9822733 3.50410604,51.4622922 C3.36445141,52.9347668 3.78152884,54.4061332 4.67310604,55.5862922 C5.55553866,56.7606093 6.83706319,57.5715657 8.27610604,57.8662922 C9.69894643,58.1572375 11.1791013,57.9141048 12.434106,57.1832922 C13.667828,56.4674303 14.5955889,55.3232986 15.041106,53.9682922" id="Path" fill-opacity="0.32"></path>
                    <path d="M10.561106,29.2502922 C10.736106,28.6022922 10.298106,28.5392922 10.116106,29.1022922 C10.072156,29.2159339 10.0227656,29.327396 9.96810604,29.4362922 C10.080106,29.1922922 10.171106,28.9362922 10.233106,28.6662922 L10.233106,28.6652922 C10.424106,28.7052922 10.636106,28.6222922 10.829106,28.3682922 C11.010106,28.1112922 11.154106,27.6632922 11.058106,27.0632922 C10.872106,25.8312922 10.172106,24.6512922 9.13010604,23.8112922 C8.08710604,22.9642922 6.71410604,22.4912922 5.35710604,22.4772922 C3.99510604,22.4582922 2.66010604,22.9182922 1.69010604,23.7432922 C0.723991696,24.5440439 0.12068819,25.6998351 0.0161060352,26.9502922 C-0.0908939648,28.1722922 0.340106035,29.4372922 1.16410604,30.4242922 C1.98010604,31.4182922 3.19610604,32.1292922 4.49110604,32.3912922 C5.78810604,32.6642922 7.16010604,32.4692922 8.26010604,31.8892922 C9.36510604,31.3142922 10.198106,30.3542922 10.561106,29.2502922" id="Path" fill-opacity="0.24"></path>
                    <path d="M23.094106,8.97629215 C23.246106,8.39529215 22.826106,8.33829215 22.669106,8.83129215 C22.632106,8.93129215 22.589106,9.02729215 22.543106,9.12229215 C22.637106,8.90829215 22.715106,8.68429215 22.769106,8.44829215 L22.769106,8.44729215 C22.951106,8.48529215 23.153106,8.41529215 23.336106,8.18829215 C23.510106,7.96129215 23.651106,7.55529215 23.583106,7.01829215 C23.445206,5.90064069 22.9005494,4.87291268 22.053106,4.13129215 C21.197741,3.39040054 20.1006555,2.98842044 18.969106,3.00129215 C16.6415012,3.01702558 14.7060671,4.79712304 14.496106,7.11529215 C14.3951204,8.21995695 14.7115769,9.32238158 15.383106,10.2052922 C16.0457417,11.0802048 17.0058824,11.6821159 18.082106,11.8972922 C19.1422631,12.1085964 20.2431092,11.9216804 21.174106,11.3722922 C22.0863441,10.8361812 22.7696786,9.98343671 23.094106,8.97629215" id="Path" fill-opacity="0.16"></path>
                    <path d="M48.142106,4.64629215 C48.257106,4.19729215 47.865106,4.14429215 47.744106,4.51129215 C47.732106,4.54329215 47.712106,4.57129215 47.698106,4.60429215 C47.745106,4.48129215 47.788106,4.35529215 47.818106,4.22429215 L47.818106,4.22229215 C47.988106,4.25929215 48.173106,4.21429215 48.338106,4.04229215 C48.495106,3.87029215 48.620106,3.55429215 48.568106,3.13429215 C48.4623014,2.26212767 48.0386086,1.45960372 47.378106,0.880292154 C46.7109482,0.302190032 45.8548151,-0.010942606 44.972106,0.000292153835 C43.1583686,0.0168012259 41.6530415,1.40663343 41.492106,3.21329215 C41.410106,4.06829215 41.672106,4.94229215 42.187106,5.61329215 C42.7026589,6.28999291 43.448351,6.75427165 44.283106,6.91829215 C45.103106,7.08329215 45.973106,6.92129215 46.671106,6.50129215 C47.3719812,6.08411933 47.8951321,5.42395275 48.141106,4.64629215" id="Path" fill-opacity="0.08"></path>
                    <path d="M62.832106,16.9992922 C62.737106,17.3802922 63.159106,17.4372922 63.260106,17.1452922 C63.277106,17.1002922 63.304106,17.0602922 63.325106,17.0172922 C63.2744065,17.134342 63.2335972,17.2554317 63.203106,17.3792922 C63.0106448,17.3310498 62.8067265,17.3783082 62.655106,17.5062922 C62.491106,17.6472922 62.364106,17.9192922 62.408106,18.2822922 C62.4976089,19.0332911 62.8611794,19.7248229 63.429106,20.2242922 C63.996106,20.7242922 64.749106,20.9922922 65.499106,20.9812922 C67.0579786,20.9628506 68.3484411,19.7645331 68.482106,18.2112922 C68.5449804,17.475315 68.3298415,16.7424871 67.879106,16.1572922 C67.4376475,15.5816804 66.7997629,15.1886979 66.087106,15.0532922 C65.3898217,14.9218667 64.6685664,15.0529392 64.062106,15.4212922 C63.4725175,15.7787147 63.0347885,16.3402889 62.832106,16.9992922" id="Path" fill-opacity="0.04"></path>
                </g>
                <path d="M293.655106,320.877292 C288.985106,317.729292 283.640106,316.001292 278.233106,315.387292 C275.526106,315.040292 272.779106,315.101292 270.050106,315.364292 L268.007106,315.629292 L266.039106,316.010292 C265.379106,316.123292 264.742106,316.312292 264.094106,316.462292 C263.446106,316.616292 262.802106,316.782292 262.172106,316.978292 C251.957106,319.956292 243.186106,325.378292 234.402106,329.770292 C217.002106,338.662292 197.322106,342.865292 177.752106,342.391292 C158.186106,341.816292 138.733106,336.411292 121.903106,326.276292 L120.313106,325.351292 L118.767106,324.354292 L115.678106,322.355292 L112.682106,320.218292 L111.185106,319.148292 L109.736106,318.014292 L106.843106,315.737292 L104.055106,313.335292 C102.161106,311.770292 100.455106,310.002292 98.653106,308.335292 C95.226106,304.827292 91.859106,301.239292 88.881106,297.336292 C87.311106,295.448292 85.953106,293.401292 84.501106,291.424292 C83.801106,290.417292 83.158106,289.372292 82.484106,288.348292 C81.817106,287.318292 81.134106,286.299292 80.540106,285.226292 C77.738106,280.402292 76.170106,281.181292 78.921106,286.170292 C79.501106,287.277292 80.172106,288.330292 80.827106,289.394292 C81.490106,290.452292 82.121106,291.534292 82.811106,292.574292 C84.241106,294.624292 85.581106,296.742292 87.133106,298.706292 C90.078106,302.758292 93.420106,306.504292 96.836106,310.176292 C98.630106,311.926292 100.336106,313.776292 102.231106,315.427292 L105.023106,317.959292 L107.924106,320.367292 L109.380106,321.567292 L110.886106,322.703292 L113.903106,324.974292 L117.020106,327.109292 L118.582106,328.173292 L120.190106,329.168292 C137.207106,340.034292 157.236106,346.208292 177.566106,347.273292 C197.886106,348.255292 218.631106,344.278292 237.046106,335.191292 C246.180106,330.746292 254.752106,325.648292 263.883106,323.073292 C268.469106,321.751292 272.957106,321.185292 277.505106,321.733292 C282.019106,322.240292 286.445106,323.714292 290.073106,326.151292 C293.550106,328.534292 295.545106,330.856292 297.007106,332.505292 C297.783106,333.315292 298.317106,333.998292 298.854106,334.422292 C299.386106,334.848292 299.864106,335.034292 300.248106,334.935292 C300.632106,334.836292 300.922106,334.449292 301.078106,333.729292 C301.228106,333.011292 301.301106,331.934292 300.936106,330.606292 C300.851925,330.246631 300.758561,329.889181 300.656106,329.534292 C300.546106,329.156292 300.358106,328.797292 300.186106,328.399292 C299.995188,327.984922 299.796486,327.574182 299.590106,327.167292 C299.375106,326.735292 299.070106,326.348292 298.782106,325.913292 C297.646106,324.153292 295.876106,322.454292 293.654106,320.877292" id="Path" fill="url(#linearGradient-2)" fill-rule="nonzero"></path>
            </g>
        </g>
    </g>
</svg>