<?xml version="1.0" encoding="UTF-8"?>
<svg width="814px" height="745px" viewBox="0 0 814 745" version="1.1" xmlns="http://www.w3.org/2000/svg" xmlns:xlink="http://www.w3.org/1999/xlink">
    <title>hero-back-illustration</title>
    <defs>
        <filter color-interpolation-filters="auto" id="filter-1">
            <feColorMatrix in="SourceGraphic" type="matrix" values="0 0 0 0 1.000000 0 0 0 0 0.501642 0 0 0 0 0.000000 0 0 0 1.000000 0"></feColorMatrix>
        </filter>
        <linearGradient x1="73.351%" y1="86.398%" x2="-8.617%" y2="-18.811%" id="linearGradient-2">
            <stop stop-color="#0270D7" stop-opacity="0" offset="0%"></stop>
            <stop stop-color="#00BFFB" offset="51.568%"></stop>
            <stop stop-color="#0270D7" offset="100%"></stop>
        </linearGradient>
        <linearGradient x1="50%" y1="0%" x2="50%" y2="100%" id="linearGradient-3">
            <stop stop-color="#FFFFFF" stop-opacity="0.32" offset="0%"></stop>
            <stop stop-color="#0270D7" stop-opacity="0" offset="100%"></stop>
        </linearGradient>
        <linearGradient x1="0%" y1="1.11022302e-14%" x2="100%" y2="88.353%" id="linearGradient-4">
            <stop stop-color="#00BFFB" offset="0%"></stop>
            <stop stop-color="#FFFFFF" stop-opacity="0" offset="100%"></stop>
        </linearGradient>
    </defs>
    <g id="Page-1" stroke="none" stroke-width="1" fill="none" fill-rule="evenodd">
        <g filter="url(#filter-1)" id="hero-back-illustration">
            <g transform="translate(-0.000021, -0.000125)">
                <path d="M548.125394,331.058839 C537.298394,325.483839 525.735394,321.585839 514.007394,318.700839 C502.243394,315.896839 490.270394,314.202839 478.320394,313.198839 C454.393394,311.108839 430.527394,311.524839 406.937394,309.788839 L398.084394,309.138839 L389.251394,308.243839 L384.834394,307.793839 C383.364394,307.630839 381.898394,307.421839 380.430394,307.236839 L371.620394,306.096839 C359.910394,304.341839 348.214394,302.406839 336.637394,299.859839 C330.825394,298.695839 325.074394,297.259839 319.307394,295.888839 C316.415394,295.236839 313.569394,294.398839 310.697394,293.661839 C307.837394,292.880839 304.956394,292.181839 302.115394,291.334839 C296.428394,289.653839 290.712394,288.068839 285.081394,286.204839 C282.259394,285.292839 279.421394,284.427839 276.611394,283.476839 L268.201394,280.572839 C265.389394,279.630839 262.608394,278.596839 259.831394,277.555839 L251.491394,274.448839 L243.221394,271.158839 L239.086394,269.514839 L234.988394,267.779839 L226.792394,264.305839 L218.670394,260.662839 C213.234394,258.282839 207.915394,255.644839 202.546394,253.117839 C181.205394,242.722839 160.435394,231.164839 140.248394,218.694839 C120.117394,206.132839 100.531394,192.706839 81.6423941,178.386839 C76.9453941,174.773839 72.2093941,171.211839 67.5983941,167.493839 L60.6503941,161.955839 L53.7883941,156.315839 C51.4939123,154.445281 49.2237224,152.545122 46.9783941,150.615839 L40.2153941,144.865839 L33.5453941,139.009839 C31.3203941,137.061839 29.0983941,135.108839 26.9213941,133.107839 C16.9333941,124.040839 15.7393941,125.317839 25.6603941,134.495839 C27.8273941,136.524839 30.0383941,138.505839 32.2543941,140.481839 L38.8923941,146.424839 L45.6243941,152.261839 C47.8583062,154.221073 50.1178341,156.150906 52.4023941,158.050839 L59.2323941,163.779839 L66.1483941,169.407839 C70.7383941,173.187839 75.4543941,176.809839 80.1283941,180.486839 C98.9383941,195.055839 118.448394,208.746839 138.525394,221.582839 C158.660394,234.324839 179.395394,246.167839 200.742394,256.848839 C206.112394,259.448839 211.432394,262.157839 216.875394,264.610839 L225.007394,268.360839 L233.217394,271.942839 L237.323394,273.731839 L241.468394,275.429839 L249.758394,278.826839 L258.125394,282.039839 C260.913394,283.115839 263.702394,284.185839 266.525394,285.162839 L274.971394,288.171839 C277.791394,289.158839 280.644394,290.056839 283.479394,291.003839 C289.138394,292.935839 294.885394,294.590839 300.605394,296.336839 C303.462394,297.220839 306.364394,297.949839 309.241394,298.762839 C312.131394,299.532839 314.995394,300.404839 317.907394,301.088839 C323.715394,302.518839 329.509394,304.022839 335.367394,305.246839 C347.037394,307.916839 358.841394,309.960839 370.667394,311.824839 L379.567394,313.038839 L384.020394,313.636839 L388.485394,314.118839 L397.417394,315.082839 L406.374394,315.794839 C430.281394,317.692839 454.150394,317.378839 477.663394,319.494839 C489.422394,320.510839 501.072394,322.178839 512.448394,324.894839 C523.792394,327.688839 534.914394,331.440839 545.233394,336.739839 C546.487394,337.362839 547.698394,337.975839 548.835394,338.626839 C549.946898,339.236802 551.058565,339.846469 552.170394,340.455839 C554.255394,341.728839 556.265394,342.807839 558.008394,343.973839 C558.898394,344.530839 559.753394,345.063839 560.570394,345.573839 C561.369394,346.112839 562.132394,346.623839 562.859394,347.113839 L564.956394,348.487839 L566.795394,349.774839 C567.948394,350.586839 569.018394,351.238839 569.897394,351.844839 C570.635296,352.3631 571.396776,352.846951 572.179394,353.294839 C573.462394,354.011839 574.263394,354.230839 574.545394,353.953839 C574.828394,353.675839 574.593394,352.899839 573.804394,351.625839 C573.306534,350.839548 572.771598,350.077356 572.201394,349.341839 C571.524394,348.457839 570.633394,347.531839 569.625394,346.451839 C569.114394,345.919839 568.575394,345.343839 567.979394,344.766839 C567.362394,344.213839 566.709394,343.628839 566.025394,343.013839 C565.330394,342.406839 564.608394,341.755839 563.822394,341.113839 C563.016394,340.496839 562.174394,339.852839 561.294394,339.181839 C559.553394,337.801839 557.514394,336.539839 555.358394,335.113839 C554.262394,334.431839 553.095394,333.779839 551.898394,333.083839 C550.710394,332.373839 549.443394,331.716839 548.125394,331.058839" id="Path" fill-opacity="0.32" fill="url(#linearGradient-2)" fill-rule="nonzero" transform="translate(296.728668, 240.496703) rotate(31.000000) translate(-296.728668, -240.496703) "></path>
                <path d="M332.998021,406.651125 C342.563021,414.190125 353.168021,420.222125 364.132021,425.292125 C375.144021,430.289125 386.574021,434.237125 398.113021,437.502125 C421.202021,444.120125 444.709021,448.265125 467.534021,454.471125 L476.100021,456.797125 L484.600021,459.362125 L488.850021,460.645125 C490.262021,461.087125 491.661021,461.572125 493.067021,462.033125 L501.497021,464.833125 C512.657021,468.791125 523.769021,472.922125 534.647021,477.631125 C540.131021,479.883125 545.502021,482.390125 550.902021,484.836125 C553.616021,486.028125 556.250021,487.392125 558.928021,488.664125 C561.586021,489.977125 564.282021,491.212125 566.908021,492.586125 C572.171021,495.322125 577.479021,497.968125 582.651021,500.872125 C585.247021,502.306125 587.868021,503.697125 590.444021,505.166125 L598.145021,509.622125 C600.727021,511.083125 603.260021,512.629125 605.787021,514.180125 L613.381021,518.822125 L620.871021,523.628125 L624.616021,526.032125 L628.308021,528.517125 L635.691021,533.491125 L642.968021,538.617125 C647.850021,541.990125 652.568021,545.595125 657.356021,549.100125 C676.322021,563.376125 694.505021,578.685125 711.942021,594.778125 C729.306021,610.950125 745.970021,627.866125 761.780021,645.528125 C765.701021,649.970125 769.670021,654.371125 773.487021,658.900125 L779.251021,665.662125 L784.911021,672.507125 C786.805997,674.780905 788.671487,677.079097 790.507021,679.401125 L796.050021,686.336125 L801.479021,693.358125 C803.292021,695.695125 805.100021,698.036125 806.856021,700.416125 C814.930021,711.222125 816.346021,710.196125 808.358021,699.294125 C806.618021,696.889125 804.826021,694.522125 803.028021,692.160125 L797.646021,685.060125 L792.151021,678.045125 C790.331951,675.695618 788.482125,673.370084 786.602021,671.069125 L780.991021,664.142125 L775.276021,657.298125 C771.491021,652.712125 767.553021,648.256125 763.666021,643.755125 C747.982021,625.865125 731.443021,608.702125 714.184021,592.271125 C696.850021,575.921125 678.756021,560.340125 659.839021,545.781125 C655.064021,542.205125 650.358021,538.531125 645.484021,535.084125 L638.217021,529.851125 L630.841021,524.769125 L627.151021,522.229125 L623.407021,519.771125 L615.917021,514.855125 L608.317021,510.105125 C605.786021,508.516125 603.252021,506.934125 600.667021,505.435125 L592.951021,500.871125 C590.370021,499.364125 587.741021,497.938125 585.139021,496.467125 C579.953021,493.491125 574.627021,490.770125 569.346021,487.964125 C566.710021,486.552125 564.000021,485.282125 561.331021,483.935125 C558.641021,482.628125 555.996021,481.225125 553.268021,479.998125 C547.840021,477.485125 542.439021,474.905125 536.921021,472.585125 C525.976021,467.738125 514.779021,463.479125 503.525021,459.392125 L495.020021,456.502125 L490.764021,455.066125 L486.474021,453.741125 L477.889021,451.091125 L469.233021,448.682125 C446.127021,442.257125 422.637021,438.012125 399.959021,431.448125 C388.610021,428.207125 377.493021,424.346125 366.844021,419.508125 C356.241021,414.602125 346.040021,408.798125 336.921021,401.627125 C335.809021,400.776125 334.737021,399.943125 333.746021,399.087125 C332.771238,398.276199 331.796238,397.465532 330.821021,396.655125 C329.017021,395.008125 327.250021,393.565125 325.761021,392.088125 C324.993021,391.371125 324.257021,390.684125 323.551021,390.028125 C322.871021,389.347125 322.219021,388.698125 321.599021,388.080125 L319.802021,386.331125 L318.242021,384.717125 C317.266021,383.700125 316.340021,382.856125 315.592021,382.092125 C314.966678,381.442865 314.311645,380.822869 313.629021,380.234125 C312.507021,379.286125 311.762021,378.918125 311.432021,379.136125 C311.102021,379.355125 311.184021,380.161125 311.716021,381.562125 C311.981021,382.262125 312.360021,383.112125 312.853021,384.110125 C313.349021,385.107125 314.047021,386.185125 314.831021,387.439125 C315.231021,388.059125 315.649021,388.727125 316.125021,389.407125 L317.708021,391.501125 C318.275021,392.229125 318.859021,393.006125 319.508021,393.786125 L321.621021,396.165125 C323.067021,397.851125 324.827021,399.479125 326.672021,401.291125 C327.618021,402.169125 328.639021,403.032125 329.680021,403.943125 C330.712021,404.866125 331.830021,405.754125 332.998021,406.651125" id="Path" fill-opacity="0.48" fill="#1D2026" fill-rule="nonzero"></path>
                <path d="M286.236021,342.842125 C307.362021,342.964125 328.534021,343.230125 349.749021,342.671125 C370.953021,342.111125 392.213021,340.719125 413.277021,337.519125 C415.915021,337.158125 418.531021,336.654125 421.154021,336.201125 C423.774021,335.722125 426.407021,335.316125 429.014021,334.776125 C434.221021,333.658125 439.458021,332.671125 444.617021,331.341125 C454.999021,328.942125 465.212021,325.884125 475.374021,322.701125 L482.941021,320.145125 L486.721021,318.857125 L490.469021,317.477125 L497.962021,314.712125 L505.383021,311.760125 L509.093021,310.282125 L512.766021,308.715125 L520.109021,305.580125 L527.377021,302.275125 L531.010021,300.620125 L534.608021,298.890125 L541.795021,295.418125 L548.910021,291.800125 C553.674021,289.428125 558.320021,286.835125 563.018021,284.340125 C572.320021,279.180125 581.558021,273.903125 590.596021,268.302125 C608.739021,257.214125 626.312021,245.247125 643.520021,232.828125 C677.917021,207.942125 710.680021,181.053125 743.193021,154.129125 C752.466021,146.449125 751.899021,145.783125 742.597021,153.406125 C709.893021,180.202125 676.971021,206.882125 642.487021,231.501125 C625.237021,243.788125 607.639021,255.608125 589.497021,266.544125 C580.461021,272.068125 571.232021,277.268125 561.943021,282.350125 C557.253021,284.805125 552.615021,287.360125 547.863021,289.693125 L540.763021,293.253125 L533.595021,296.666125 L530.009021,298.367125 L526.388021,299.992125 L519.145021,303.242125 L511.829021,306.320125 L508.170021,307.858125 L504.477021,309.310125 L497.089021,312.205125 L489.632021,314.917125 L485.902021,316.270125 C484.657021,316.713125 483.396021,317.111125 482.143021,317.534125 L474.616021,320.037125 C464.514021,323.157125 454.364021,326.147125 444.056021,328.492125 C438.932021,329.791125 433.735021,330.756125 428.565021,331.845125 C425.979021,332.379125 423.365021,332.765125 420.765021,333.235125 C418.161021,333.671125 415.568021,334.171125 412.949021,334.519125 C392.048021,337.634125 370.909021,338.973125 349.766021,339.505125 C328.616021,340.035125 307.437021,339.760125 286.256021,339.655125 C245.321021,339.412125 245.286021,342.567125 286.236021,342.842125" id="Path" fill-opacity="0.64" fill="#FFFFFF" fill-rule="nonzero"></path>
                <path d="M317.000879,613.414355 C313.717956,627.051572 307.969449,639.973682 300.038879,651.543355 C292.142879,663.102355 282.086879,673.180355 270.569879,681.145355 C259.026577,689.142631 246.117823,694.961043 232.480879,698.313355 C218.881879,701.697355 204.647879,702.432355 190.743879,700.732355 C176.839879,699.025355 163.226879,694.790355 150.870879,688.154355 C138.472989,681.528107 127.380584,672.706836 118.132879,662.119355 C108.905879,651.564355 101.606879,639.324355 96.7458785,626.169355 C96.5268785,625.572355 96.3178785,624.972355 96.1088785,624.373355 C96.4988785,624.573355 96.9458785,624.788355 97.4648785,625.018355 C98.8548991,625.647585 100.289871,626.172371 101.757879,626.588355 C103.508879,627.108355 105.557879,627.723355 107.958879,628.148355 C109.193879,628.385355 110.423879,628.653355 111.664879,628.863355 L115.400879,629.406355 L117.270879,629.672355 L119.150879,629.850355 L122.913879,630.204355 C127.941879,630.464355 132.993879,630.621355 138.026879,630.246355 C148.104879,629.706355 158.083879,627.686355 167.690879,624.589355 C186.860879,618.242355 204.456879,606.999355 218.015879,592.001355 C231.687879,577.104355 241.216879,558.561355 245.708879,538.946355 C250.184879,519.315355 249.523879,498.591355 243.796879,479.421355 C243.625515,478.873293 243.442809,478.328843 243.248879,477.788355 C243.759879,477.966355 244.268879,478.142355 244.788879,478.331355 C257.864879,483.151355 270.043879,490.393355 280.564879,499.551355 C291.12287,508.734934 299.932979,519.752228 306.569879,532.071355 C319.844879,556.661355 323.619879,586.219355 317.000879,613.415355 M309.420879,530.695355 C302.621642,518.005664 293.576102,506.655117 282.723879,497.195355 C271.904879,487.759355 259.363879,480.297355 245.886879,475.339355 C239.363879,472.963355 233.444879,471.536355 228.344879,470.554355 C223.221879,469.667355 218.910879,469.224355 215.456879,469.094355 C213.727879,469.042355 212.217879,468.991355 210.922879,469.000845 C209.843062,469.04193 208.76417,469.10361 207.686879,469.187355 C205.962879,469.330355 205.106879,469.506355 205.106879,469.704355 C205.104879,469.902355 205.959879,470.123355 207.657879,470.352355 C208.505879,470.466355 209.565879,470.582355 210.834879,470.701355 C212.100879,470.863355 213.575879,471.051355 215.260879,471.268355 C218.626879,471.688355 222.808879,472.368355 227.771879,473.403355 C232.054879,474.381355 236.932879,475.629355 242.289879,477.452355 C242.432879,478.061355 242.629879,478.797355 242.896879,479.684355 C248.376879,498.796355 248.734879,519.314355 244.064879,538.594355 C239.376879,557.864355 229.768879,575.923355 216.227879,590.334355 C202.793879,604.854355 185.521879,615.636355 166.807879,621.706355 C157.423879,624.660355 147.701879,626.588355 137.883879,627.084355 C132.979879,627.439355 128.060879,627.272355 123.161879,627.020355 L119.495879,626.673355 L117.663879,626.500355 L115.840879,626.240355 L112.197879,625.715355 C110.988879,625.512355 109.788879,625.251355 108.583879,625.023355 C106.246879,624.613355 104.233879,624.113355 102.481879,623.773355 L98.0898785,622.927355 C96.9938785,622.737355 96.1438785,622.646355 95.5218785,622.636355 C91.5158785,610.504355 89.5618785,597.710355 89.6918785,584.936355 C89.7758785,570.908355 92.5728785,556.928355 97.7048785,543.893355 C102.841879,530.853355 110.385879,518.772355 119.822879,508.411355 C129.252879,498.039355 140.607879,489.443355 153.098879,483.118355 C165.625554,476.782488 179.199459,472.776051 193.158879,471.294355 L198.378879,470.844355 C199.869879,470.701355 201.118879,470.690355 202.115879,470.603355 C204.109879,470.467355 205.109879,470.328355 205.107879,470.215355 C205.107879,470.102355 204.104879,470.014355 202.093879,469.977355 C201.089879,469.977355 199.830879,469.914355 198.325879,470.004355 C196.821879,470.094355 195.065879,470.202355 193.062879,470.361355 C178.954993,471.803314 165.226962,475.798993 152.548879,482.153355 C139.899879,488.497355 128.391879,497.149355 118.808879,507.600355 C109.194201,518.082568 101.563962,530.224401 96.2898785,543.434355 C91.0458785,556.618355 88.1498785,570.777355 88.0098785,584.999355 C87.8098785,599.212355 90.1468785,613.479355 95.0048785,626.872355 C99.8828785,640.255355 107.250879,652.726355 116.586879,663.500355 C125.954042,674.316235 137.205099,683.343645 149.793879,690.144355 C162.348879,696.959355 176.209879,701.341355 190.387879,703.149355 C204.562879,704.953355 219.089879,704.264355 233.005879,700.873355 C246.967514,697.510175 260.195986,691.620875 272.037879,683.496355 C283.899095,675.373991 294.16973,665.144707 302.339879,653.316355 C310.523906,641.486302 316.473911,628.258419 319.895879,614.286355 C326.777879,586.406355 323.038879,556.025355 309.421879,530.696355" id="Shape" fill="url(#linearGradient-3)" fill-rule="nonzero" transform="translate(205.632045, 586.559219) rotate(-153.000000) translate(-205.632045, -586.559219) "></path>
                <path d="M225.00496,378.015378 C220.33496,374.867378 214.99096,373.139378 209.58496,372.525378 C206.87696,372.178378 204.12996,372.239378 201.40096,372.502378 L199.35796,372.767378 L197.38996,373.147378 C196.72996,373.261378 196.09296,373.450378 195.44496,373.600378 C194.79696,373.754378 194.15296,373.919378 193.52296,374.116378 C183.30796,377.094378 174.53696,382.515378 165.75296,386.908378 C148.35296,395.800378 128.67296,400.003378 109.10296,399.528378 C89.5369605,398.954378 70.0839605,393.548378 53.2539605,383.414378 L51.6639605,382.489378 L50.1179605,381.492378 L47.0289605,379.492378 L44.0329605,377.356378 L42.5359605,376.286378 L41.0869605,375.152378 L38.1939605,372.875378 L35.4059605,370.473378 C33.5119605,368.908378 31.8059605,367.140378 30.0039605,365.473378 C26.5769605,361.965378 23.2099605,358.377378 20.2319605,354.473378 C18.6619605,352.586378 17.3039605,350.539378 15.8519605,348.562378 C15.1519605,347.555378 14.5089605,346.510378 13.8349605,345.486378 C13.1679605,344.456378 12.4849605,343.436378 11.8909605,342.364378 C9.08896047,337.540378 7.52096047,338.319378 10.2719605,343.308378 C10.8519605,344.415378 11.5229605,345.468378 12.1779605,346.532378 C12.8409605,347.590378 13.4719605,348.671378 14.1619605,349.712378 C15.5919605,351.761378 16.9319605,353.880378 18.4839605,355.844378 C21.4289605,359.896378 24.7709605,363.642378 28.1869605,367.314378 C29.9809605,369.064378 31.6869605,370.914378 33.5819605,372.564378 L36.3739605,375.097378 L39.2749605,377.505378 L40.7309605,378.704378 L42.2369605,379.841378 L45.2539605,382.111378 L48.3709605,384.247378 L49.9329605,385.311378 L51.5409605,386.306378 C68.5579605,397.172378 88.5869605,403.346378 108.91696,404.411378 C129.23696,405.393378 149.98196,401.416378 168.39696,392.329378 C177.53096,387.884378 186.10296,382.786378 195.23396,380.211378 C199.81996,378.889378 204.30796,378.323378 208.85596,378.871378 C213.36996,379.378378 217.79596,380.851378 221.42396,383.289378 C224.90096,385.672378 226.89596,387.994378 228.35796,389.643378 C229.13396,390.452378 229.66796,391.136378 230.20496,391.560378 C230.73696,391.986378 231.21496,392.172378 231.59896,392.073378 C231.98296,391.973378 232.27296,391.587378 232.42896,390.867378 C232.57896,390.149378 232.65196,389.072378 232.28696,387.744378 C232.202779,387.384716 232.109416,387.027266 232.00696,386.672378 C231.89696,386.294378 231.70896,385.935378 231.53696,385.537378 C231.346043,385.123007 231.147341,384.712268 230.94096,384.305378 C230.72596,383.873378 230.42096,383.485378 230.13296,383.051378 C228.99696,381.291378 227.22696,379.591378 225.00496,378.015378" id="Path" fill="url(#linearGradient-4)" fill-rule="nonzero" transform="translate(120.693872, 371.842666) rotate(-29.000000) translate(-120.693872, -371.842666) "></path>
            </g>
        </g>
    </g>
</svg>