<?xml version="1.0" encoding="UTF-8"?>
<svg width="32px" height="32px" viewBox="0 0 32 32" version="1.1" xmlns="http://www.w3.org/2000/svg" xmlns:xlink="http://www.w3.org/1999/xlink">
    <title>Icon</title>
    <defs>
        <linearGradient x1="99.5287915%" y1="0.471208479%" x2="0.69400814%" y2="99.3059919%" id="linearGradient-1">
            <stop stop-color="#FF9942" offset="0%"></stop>
            <stop stop-color="#FF4700" offset="100%"></stop>
        </linearGradient>
    </defs>
    <g id="Icon" stroke="none" stroke-width="1" fill="none" fill-rule="evenodd">
        <g id="Glyph">
            <rect id="background" fill="url(#linearGradient-1)" x="0" y="0" width="32" height="32" rx="6"></rect>
            <path d="M15.8125,4.3125 C22.6815416,4.3125 28.25,9.53118089 28.25,15.96875 C28.25,22.4063191 22.6815416,27.625 15.8125,27.625 C13.3788117,27.625 11.1083819,26.969914 9.19102021,25.8376287 C8.7779104,26.1202265 8.19431153,26.3317347 7.44156956,26.4718154 C6.24402551,26.694671 5.30875338,26.5426309 4.63575316,26.0156951 C5.40483665,25.5486983 5.87044054,25.0463815 6.03256483,24.508745 C6.11114444,24.2481593 6.15604698,23.8545308 6.16727245,23.3278597 C4.42146462,21.3211332 3.375,18.7594727 3.375,15.96875 C3.375,9.53118089 8.94345842,4.3125 15.8125,4.3125 Z" id="bubble" fill="#FFFFFF"></path>
            <path d="M15.8125,8.75 C16.8135161,8.75 17.625,9.56148389 17.625,10.5625 C17.625,10.9150318 17.5243545,11.2440565 17.3502297,11.5224081 L20.3525919,14.5247703 C20.6309435,14.3506455 20.9599682,14.25 21.3125,14.25 C22.3135161,14.25 23.125,15.0614839 23.125,16.0625 C23.125,17.0635161 22.3135161,17.875 21.3125,17.875 C20.992503,17.875 20.6918744,17.7920742 20.4309317,17.6465403 L17.3965403,20.6809317 C17.5420742,20.9418744 17.625,21.242503 17.625,21.5625 C17.625,22.5635161 16.8135161,23.375 15.8125,23.375 C14.8114839,23.375 14,22.5635161 14,21.5625 C14,21.2589131 14.0746386,20.9727591 14.2065666,20.7213871 L11.1536129,17.6684334 C10.9022409,17.8003614 10.6160869,17.875 10.3125,17.875 C9.31148389,17.875 8.5,17.0635161 8.5,16.0625 C8.5,15.0614839 9.31148389,14.25 10.3125,14.25 C10.6489071,14.25 10.9639083,14.341649 11.2338975,14.5013408 L14.2513408,11.4838975 C14.091649,11.2139083 14,10.8989071 14,10.5625 C14,9.56148389 14.8114839,8.75 15.8125,8.75 Z M15.0988078,12.2290788 L11.9786403,15.3477861 C12.0728344,15.5670821 12.125,15.8086991 12.125,16.0625 C12.125,16.3497995 12.0581552,16.6214866 11.9391697,16.8628571 L15.0131363,19.9353409 C15.0893804,19.8978139 15.1686454,19.865488 15.2504683,19.838826 L15.2504683,17.786174 C14.5245752,17.549642 14,16.8673316 14,16.0625 C14,15.0614839 14.8114839,14.25 15.8125,14.25 C16.8135161,14.25 17.625,15.0614839 17.625,16.0625 C17.625,16.8669662 17.1009009,17.5490226 16.3755201,17.7858516 L16.3755201,19.8391484 C16.4417126,19.8607595 16.506229,19.886078 16.5688241,19.9148586 L19.6653225,16.819832 C19.5591917,16.5893814 19.5,16.3328532 19.5,16.0625 C19.5,15.8257936 19.5453751,15.599685 19.6279018,15.3923981 L16.4816131,12.2474916 C16.274596,12.329769 16.0488301,12.375 15.8125,12.375 C15.5590932,12.375 15.3178325,12.3229963 15.0988078,12.2290788 Z" id="decentral" fill="url(#linearGradient-1)"></path>
        </g>
    </g>
</svg>